<?xml version="1.0" encoding="UTF-8"?>
<svg xmlns="http://www.w3.org/2000/svg" viewBox="0 0 524.224 110.006">
  <defs>
    <style>
      .cls-1 {
        fill: #fff;
      }

      .cls-2 {
        isolation: isolate;
      }

      .cls-3 {
        stroke-width: 8px;
      }

      .cls-3, .cls-4 {
        fill: none;
        stroke: #000;
        stroke-linecap: round;
        stroke-linejoin: round;
      }

      .cls-4 {
        stroke-width: 10px;
      }

      .cls-5 {
        mix-blend-mode: multiply;
      }
    </style>
  </defs>
  <g class="cls-2">
    <g id="_レイヤー_1" data-name="レイヤー 1">
      <g>
        <g>
          <g>
            <g class="cls-5">
              <g>
                <path class="cls-4" d="M90.944,51.697c-4.912,1.925-5.774,2.19-9.16,2.721v-10.752c7.633-1.992,19.647-9.16,25.289-15.134h11.085c4.779,6.638,13.009,11.549,24.028,14.47v12.014c-4.779-1.261-6.771-1.858-10.022-3.12v5.111h-41.22v-5.31Zm-4.314,9.824h50.446v17.258c0,6.637-3.053,9.425-10.421,9.425h-40.025v-26.683Zm38.896,16.129v-6.638h-27.214v6.638h27.214Zm-1.925-30.4c-4.979-3.186-8.363-6.04-11.351-9.492-5.907,5.177-8.894,7.434-12.412,9.492h23.763Z"/>
                <path class="cls-4" d="M147.566,39.417h25.488v7.5h-25.488v-7.5Zm1.925,28.409h22.568v12.346c.066,6.571-1.66,8.23-8.496,8.23h-14.072v-20.576Zm.398-38.299h21.971v7.766h-21.971v-7.766Zm0,19.382h21.639v7.434h-21.639v-7.434Zm0,9.823h21.639v7.434h-21.639v-7.434Zm13.275,20.709v-4.182h-4.713v4.182h4.713Zm22.236-23.032h-11.682v-9.957h11.682V28.797h11.35v17.656h12.014v9.957h-12.014v32.922h-11.35V56.41Z"/>
                <path class="cls-4" d="M273.284,31.518v46.662c0,6.505-3.12,9.226-10.487,9.226h-46.729V31.518h57.216Zm-10.554,45.667V41.209h-36.308v35.976h36.308Zm-32.591-31.86h28.874v27.612h-28.874v-27.612Zm18.652,18.718v-9.226h-8.762v9.226h8.762Z"/>
                <path class="cls-4" d="M280.323,37.891c4.845-2.854,6.969-4.978,8.96-8.895h10.62l-2.19,3.85h11.881v8.297h-8.098l2.124,4.646h-11.351l-1.925-4.58c-3.252,3.186-5.509,4.58-10.022,6.173v-9.492Zm49.516,24.891v2.854h-37.834v-2.854c-3.518,1.394-5.908,2.058-11.682,3.186v-9.89c8.297-1.46,15.532-4.58,23.099-9.957h13.142c6.837,4.779,15.93,8.496,24.426,10.089v10.487c-4.646-1.261-6.77-1.991-11.151-3.916Zm-44.405,5.044h50.379v14.735c-.066,4.115-2.058,6.239-6.04,6.239h-44.339v-20.975Zm39.361,12.08v-3.982h-28.343v3.982h28.343Zm-6.571-22.236c-4.182-2.456-5.576-3.451-8.164-5.509-2.124,1.792-3.054,2.522-7.567,5.509h15.731Zm1.925-16.328c-5.044,3.053-5.708,3.385-9.027,4.248v-8.695c3.783-1.991,6.239-4.514,7.766-7.899h11.351l-2.655,3.85h13.408v8.297h-9.425l1.792,4.646h-11.284l-1.925-4.447Z"/>
                <path class="cls-4" d="M347.697,32.912h23.762v41.352c.133,7.168-1.925,9.093-9.625,8.96h-14.138V32.912Zm14.138,20.443v-10.288h-4.646v10.288h4.646Zm0,19.714v-10.421h-4.646v10.421h4.646Zm25.355,7.434h-9.226c-1.062-3.518-1.46-4.646-3.65-10.023h9.89c1.593,3.651,2.323,5.509,3.452,9.094h5.775v-11.948h-20.643v-9.093h20.643v-3.651h-20.643v-8.23h11.881v-3.784h-10.62v-8.96h10.62v-4.646h10.354v4.646h11.35v8.96h-11.35v3.784h12.877v8.23h-4.514v3.651h4.514v9.093h-4.514v11.616c.266,7.168-2.456,10.156-9.16,10.222h-7.036v-8.96Z"/>
                <path class="cls-4" d="M414.274,30.324h27.281v26.484h-17.324v33.321h-9.957V30.324Zm17.391,10.819v-2.522h-7.434v2.522h7.434Zm0,8.562v-2.854h-7.434v2.854h7.434Zm25.223,32.325c-.863,3.385-2.655,4.381-7.5,4.314h-19.647v-26.749h27.479v20.244h5.044v-23.032h-17.125V30.324h27.679v49.848c0,7.5-2.456,9.492-11.018,9.425h-4.912v-7.567Zm-9.359-12.943v-2.788h-8.562v2.788h8.562Zm0,9.558v-3.784h-8.562v3.784h8.562Zm14.735-37.502v-2.522h-7.5v2.522h7.5Zm0,8.562v-2.854h-7.5v2.854h7.5Z"/>
              </g>
            </g>
            <g>
              <path class="cls-4" d="M90.944,46.697c-4.912,1.925-5.774,2.19-9.16,2.721v-10.752c7.633-1.992,19.647-9.16,25.289-15.134h11.085c4.779,6.638,13.009,11.549,24.028,14.47v12.014c-4.779-1.261-6.771-1.858-10.022-3.12v5.111h-41.22v-5.31Zm-4.314,9.824h50.446v17.258c0,6.637-3.053,9.425-10.421,9.425h-40.025v-26.683Zm38.896,16.129v-6.638h-27.214v6.638h27.214Zm-1.925-30.4c-4.979-3.186-8.363-6.04-11.351-9.492-5.907,5.177-8.894,7.434-12.412,9.492h23.763Z"/>
              <path class="cls-4" d="M147.566,34.417h25.488v7.5h-25.488v-7.5Zm1.925,28.409h22.568v12.346c.066,6.571-1.66,8.23-8.496,8.23h-14.072v-20.576Zm.398-38.299h21.971v7.766h-21.971v-7.766Zm0,19.382h21.639v7.434h-21.639v-7.434Zm0,9.823h21.639v7.434h-21.639v-7.434Zm13.275,20.709v-4.182h-4.713v4.182h4.713Zm22.236-23.032h-11.682v-9.957h11.682V23.797h11.35v17.656h12.014v9.957h-12.014v32.922h-11.35V51.41Z"/>
              <path class="cls-4" d="M273.284,26.518v46.662c0,6.505-3.12,9.226-10.487,9.226h-46.729V26.518h57.216Zm-10.554,45.667V36.209h-36.308v35.976h36.308Zm-32.591-31.86h28.874v27.612h-28.874v-27.612Zm18.652,18.718v-9.226h-8.762v9.226h8.762Z"/>
              <path class="cls-4" d="M280.323,32.891c4.845-2.854,6.969-4.978,8.96-8.895h10.62l-2.19,3.85h11.881v8.297h-8.098l2.124,4.646h-11.351l-1.925-4.58c-3.252,3.186-5.509,4.58-10.022,6.173v-9.492Zm49.516,24.891v2.854h-37.834v-2.854c-3.518,1.394-5.908,2.058-11.682,3.186v-9.89c8.297-1.46,15.532-4.58,23.099-9.957h13.142c6.837,4.779,15.93,8.496,24.426,10.089v10.487c-4.646-1.261-6.77-1.991-11.151-3.916Zm-44.405,5.044h50.379v14.735c-.066,4.115-2.058,6.239-6.04,6.239h-44.339v-20.975Zm39.361,12.08v-3.982h-28.343v3.982h28.343Zm-6.571-22.236c-4.182-2.456-5.576-3.451-8.164-5.509-2.124,1.792-3.054,2.522-7.567,5.509h15.731Zm1.925-16.328c-5.044,3.053-5.708,3.385-9.027,4.248v-8.695c3.783-1.991,6.239-4.514,7.766-7.899h11.351l-2.655,3.85h13.408v8.297h-9.425l1.792,4.646h-11.284l-1.925-4.447Z"/>
              <path class="cls-4" d="M347.697,27.912h23.762v41.352c.133,7.168-1.925,9.093-9.625,8.96h-14.138V27.912Zm14.138,20.443v-10.288h-4.646v10.288h4.646Zm0,19.714v-10.421h-4.646v10.421h4.646Zm25.355,7.434h-9.226c-1.062-3.518-1.46-4.646-3.65-10.023h9.89c1.593,3.651,2.323,5.509,3.452,9.094h5.775v-11.948h-20.643v-9.093h20.643v-3.651h-20.643v-8.23h11.881v-3.784h-10.62v-8.96h10.62v-4.646h10.354v4.646h11.35v8.96h-11.35v3.784h12.877v8.23h-4.514v3.651h4.514v9.093h-4.514v11.616c.266,7.168-2.456,10.156-9.16,10.222h-7.036v-8.96Z"/>
              <path class="cls-4" d="M414.274,25.324h27.281v26.484h-17.324v33.321h-9.957V25.324Zm17.391,10.819v-2.522h-7.434v2.522h7.434Zm0,8.562v-2.854h-7.434v2.854h7.434Zm25.223,32.325c-.863,3.385-2.655,4.381-7.5,4.314h-19.647v-26.749h27.479v20.244h5.044v-23.032h-17.125V25.324h27.679v49.848c0,7.5-2.456,9.492-11.018,9.425h-4.912v-7.567Zm-9.359-12.943v-2.788h-8.562v2.788h8.562Zm0,9.558v-3.784h-8.562v3.784h8.562Zm14.735-37.502v-2.522h-7.5v2.522h7.5Zm0,8.562v-2.854h-7.5v2.854h7.5Z"/>
            </g>
          </g>
          <g>
            <path class="cls-1" d="M90.944,46.697c-4.912,1.925-5.774,2.19-9.16,2.721v-10.752c7.633-1.992,19.647-9.16,25.289-15.134h11.085c4.779,6.638,13.009,11.549,24.028,14.47v12.014c-4.779-1.261-6.771-1.858-10.022-3.12v5.111h-41.22v-5.31Zm-4.314,9.824h50.446v17.258c0,6.637-3.053,9.425-10.421,9.425h-40.025v-26.683Zm38.896,16.129v-6.638h-27.214v6.638h27.214Zm-1.925-30.4c-4.979-3.186-8.363-6.04-11.351-9.492-5.907,5.177-8.894,7.434-12.412,9.492h23.763Z"/>
            <path class="cls-1" d="M147.566,34.417h25.488v7.5h-25.488v-7.5Zm1.925,28.409h22.568v12.346c.066,6.571-1.66,8.23-8.496,8.23h-14.072v-20.576Zm.398-38.299h21.971v7.766h-21.971v-7.766Zm0,19.382h21.639v7.434h-21.639v-7.434Zm0,9.823h21.639v7.434h-21.639v-7.434Zm13.275,20.709v-4.182h-4.713v4.182h4.713Zm22.236-23.032h-11.682v-9.957h11.682V23.797h11.35v17.656h12.014v9.957h-12.014v32.922h-11.35V51.41Z"/>
            <path class="cls-1" d="M273.284,26.518v46.662c0,6.505-3.12,9.226-10.487,9.226h-46.729V26.518h57.216Zm-10.554,45.667V36.209h-36.308v35.976h36.308Zm-32.591-31.86h28.874v27.612h-28.874v-27.612Zm18.652,18.718v-9.226h-8.762v9.226h8.762Z"/>
            <path class="cls-1" d="M280.323,32.891c4.845-2.854,6.969-4.978,8.96-8.895h10.62l-2.19,3.85h11.881v8.297h-8.098l2.124,4.646h-11.351l-1.925-4.58c-3.252,3.186-5.509,4.58-10.022,6.173v-9.492Zm49.516,24.891v2.854h-37.834v-2.854c-3.518,1.394-5.908,2.058-11.682,3.186v-9.89c8.297-1.46,15.532-4.58,23.099-9.957h13.142c6.837,4.779,15.93,8.496,24.426,10.089v10.487c-4.646-1.261-6.77-1.991-11.151-3.916Zm-44.405,5.044h50.379v14.735c-.066,4.115-2.058,6.239-6.04,6.239h-44.339v-20.975Zm39.361,12.08v-3.982h-28.343v3.982h28.343Zm-6.571-22.236c-4.182-2.456-5.576-3.451-8.164-5.509-2.124,1.792-3.054,2.522-7.567,5.509h15.731Zm1.925-16.328c-5.044,3.053-5.708,3.385-9.027,4.248v-8.695c3.783-1.991,6.239-4.514,7.766-7.899h11.351l-2.655,3.85h13.408v8.297h-9.425l1.792,4.646h-11.284l-1.925-4.447Z"/>
            <path class="cls-1" d="M347.697,27.912h23.762v41.352c.133,7.168-1.925,9.093-9.625,8.96h-14.138V27.912Zm14.138,20.443v-10.288h-4.646v10.288h4.646Zm0,19.714v-10.421h-4.646v10.421h4.646Zm25.355,7.434h-9.226c-1.062-3.518-1.46-4.646-3.65-10.023h9.89c1.593,3.651,2.323,5.509,3.452,9.094h5.775v-11.948h-20.643v-9.093h20.643v-3.651h-20.643v-8.23h11.881v-3.784h-10.62v-8.96h10.62v-4.646h10.354v4.646h11.35v8.96h-11.35v3.784h12.877v8.23h-4.514v3.651h4.514v9.093h-4.514v11.616c.266,7.168-2.456,10.156-9.16,10.222h-7.036v-8.96Z"/>
            <path class="cls-1" d="M414.274,25.324h27.281v26.484h-17.324v33.321h-9.957V25.324Zm17.391,10.819v-2.522h-7.434v2.522h7.434Zm0,8.562v-2.854h-7.434v2.854h7.434Zm25.223,32.325c-.863,3.385-2.655,4.381-7.5,4.314h-19.647v-26.749h27.479v20.244h5.044v-23.032h-17.125V25.324h27.679v49.848c0,7.5-2.456,9.492-11.018,9.425h-4.912v-7.567Zm-9.359-12.943v-2.788h-8.562v2.788h8.562Zm0,9.558v-3.784h-8.562v3.784h8.562Zm14.735-37.502v-2.522h-7.5v2.522h7.5Zm0,8.562v-2.854h-7.5v2.854h7.5Z"/>
          </g>
        </g>
        <g>
          <g>
            <g class="cls-5">
              <path class="cls-3" d="M21.431,35.235v-5.357h16.071v5.357H21.431Zm5.357,29.464h5.357v-16.071h-5.357v16.071Zm2.679,21.429c-3.304,0-6.417-.636-9.342-1.908s-5.48-3.002-7.667-5.19c-2.188-2.188-3.917-4.743-5.19-7.667s-1.908-6.038-1.908-9.342,.636-6.417,1.908-9.342,3.002-5.48,5.19-7.667c2.188-2.188,4.743-3.917,7.667-5.19s6.038-1.908,9.342-1.908c2.768,0,5.424,.446,7.969,1.339s4.933,2.188,7.165,3.884l3.75-3.75,3.75,3.75-3.75,3.75c1.696,2.232,2.991,4.621,3.884,7.165s1.339,5.201,1.339,7.969c0,3.304-.636,6.417-1.908,9.342s-3.002,5.48-5.19,7.667-4.743,3.917-7.667,5.19-6.038,1.908-9.342,1.908Zm0-5.357c5.179,0,9.598-1.83,13.259-5.491,3.661-3.661,5.491-8.08,5.491-13.259s-1.83-9.598-5.491-13.259c-3.661-3.661-8.08-5.491-13.259-5.491s-9.598,1.83-13.259,5.491c-3.661,3.661-5.491,8.08-5.491,13.259s1.83,9.598,5.491,13.259c3.661,3.661,8.08,5.491,13.259,5.491Z"/>
            </g>
            <path class="cls-3" d="M21.431,32.235v-5.357h16.071v5.357H21.431Zm5.357,29.464h5.357v-16.071h-5.357v16.071Zm2.679,21.429c-3.304,0-6.417-.636-9.342-1.908s-5.48-3.002-7.667-5.19c-2.188-2.188-3.917-4.743-5.19-7.667s-1.908-6.038-1.908-9.342,.636-6.417,1.908-9.342,3.002-5.48,5.19-7.667c2.188-2.188,4.743-3.917,7.667-5.19s6.038-1.908,9.342-1.908c2.768,0,5.424,.446,7.969,1.339s4.933,2.188,7.165,3.884l3.75-3.75,3.75,3.75-3.75,3.75c1.696,2.232,2.991,4.621,3.884,7.165s1.339,5.201,1.339,7.969c0,3.304-.636,6.417-1.908,9.342s-3.002,5.48-5.19,7.667-4.743,3.917-7.667,5.19-6.038,1.908-9.342,1.908Zm0-5.357c5.179,0,9.598-1.83,13.259-5.491,3.661-3.661,5.491-8.08,5.491-13.259s-1.83-9.598-5.491-13.259c-3.661-3.661-8.08-5.491-13.259-5.491s-9.598,1.83-13.259,5.491c-3.661,3.661-5.491,8.08-5.491,13.259s1.83,9.598,5.491,13.259c3.661,3.661,8.08,5.491,13.259,5.491Z"/>
          </g>
          <path class="cls-1" d="M21.431,32.235v-5.357h16.071v5.357H21.431Zm5.357,29.464h5.357v-16.071h-5.357v16.071Zm2.679,21.429c-3.304,0-6.417-.636-9.342-1.908s-5.48-3.002-7.667-5.19c-2.188-2.188-3.917-4.743-5.19-7.667s-1.908-6.038-1.908-9.342,.636-6.417,1.908-9.342,3.002-5.48,5.19-7.667c2.188-2.188,4.743-3.917,7.667-5.19s6.038-1.908,9.342-1.908c2.768,0,5.424,.446,7.969,1.339s4.933,2.188,7.165,3.884l3.75-3.75,3.75,3.75-3.75,3.75c1.696,2.232,2.991,4.621,3.884,7.165s1.339,5.201,1.339,7.969c0,3.304-.636,6.417-1.908,9.342s-3.002,5.48-5.19,7.667-4.743,3.917-7.667,5.19-6.038,1.908-9.342,1.908Zm0-5.357c5.179,0,9.598-1.83,13.259-5.491,3.661-3.661,5.491-8.08,5.491-13.259s-1.83-9.598-5.491-13.259c-3.661-3.661-8.08-5.491-13.259-5.491s-9.598,1.83-13.259,5.491c-3.661,3.661-5.491,8.08-5.491,13.259s1.83,9.598,5.491,13.259c3.661,3.661,8.08,5.491,13.259,5.491Z"/>
        </g>
      </g>
    </g>
  </g>
</svg>