<?xml version="1.0" encoding="UTF-8"?>
<svg xmlns="http://www.w3.org/2000/svg" viewBox="0 0 524.224 110.006">
  <defs>
    <style>
      .cls-1 {
        fill: #fff;
      }

      .cls-2 {
        isolation: isolate;
      }

      .cls-3 {
        stroke-width: 8px;
      }

      .cls-3, .cls-4 {
        fill: none;
        stroke: #000;
        stroke-linecap: round;
        stroke-linejoin: round;
      }

      .cls-4 {
        stroke-width: 10px;
      }

      .cls-5 {
        mix-blend-mode: multiply;
      }
    </style>
  </defs>
  <g class="cls-2">
    <g id="_レイヤー_1" data-name="レイヤー 1">
      <g>
        <g>
          <g>
            <g class="cls-5">
              <g>
                <path class="cls-4" d="M84.495,74.32h7.302v-27.479h11.018v27.479h7.368V36.884h-23.895v-10.222h57.216v10.222h-21.838v12.877h18.785v10.156h-18.785v14.403h23.166v10.222h-60.336v-10.222Z"/>
                <path class="cls-4" d="M149.944,75.315c2.39-1.659,2.921-2.987,3.053-7.633v-17.921l-2.588,1.991v-13.076c4.049-3.784,5.841-6.771,7.7-12.811h10.421l-.73,1.925h12.413v6.571l-2.921,4.712h3.917v36.905c0,8.23-1.792,9.823-10.819,9.89h-3.982v-9.691h6.106v-5.044h-10.886c.066,8.629-3.452,13.474-11.682,16.129v-11.948Zm14.138-24.227v-3.252h-2.456v3.252h2.456Zm0,11.616v-4.115h-2.456v4.115h2.456Zm3.252-23.63l1.858-2.655h-5.443l-1.659,2.655h5.244Zm5.177,12.014v-3.252h-2.39v3.252h2.39Zm0,11.616v-4.115h-2.39v4.115h2.39Zm19.913,14.536h-10.354v-8.894h10.354v-3.518h-10.687c1.128-4.58,1.726-7.102,2.655-12.479h6.836l-.863,4.115h2.058v-4.646h9.757v4.646h8.098v8.363h-8.098v3.518h9.425v8.894h-9.425v9.227h-9.757v-9.227Zm-9.359-34.582c2.987-.598,4.779-2.589,5.642-6.106h-5.642v-9.293h27.745c-.266,10.089-.597,15.466-1.195,17.324-.929,4.381-3.65,6.106-9.757,6.239h-3.85v-8.164h2.058c2.19-.066,2.456-.796,2.721-6.106h-2.721c-2.323,9.359-6.438,13.474-15.001,15.067v-8.961Z"/>
                <path class="cls-4" d="M217.185,77.838c5.045-.199,6.505-.398,10.023-1.527l-6.239-2.788c-1.195-.598-1.858-1.593-1.858-2.854,0-.598,.132-1.062,.664-2.456l.796-1.925h-3.385v-7.434h6.97c.796-1.66,.863-1.925,1.593-3.85h2.655v-4.381c-3.319,2.788-6.704,4.646-11.218,6.107v-9.425c3.784-1.261,5.509-1.992,8.297-3.917h-8.297v-8.496h2.722l-2.788-7.368h8.098l2.456,7.368h.73v-9.226h10.155v8.695l2.987-6.837h8.297l-3.452,7.368h1.726v8.496h-6.04c2.19,1.792,3.385,2.522,6.04,3.651v9.359c-3.252-1.261-6.173-3.186-9.558-6.239v4.912h-2.721l-1.726,3.784h14.005v7.434h-2.456c-1.328,3.65-1.527,4.182-3.054,7.766l3.983,1.394v10.089c-3.717-1.992-5.244-2.722-8.496-4.049-6.173,3.518-11.019,4.713-20.909,5.111v-8.762Zm18.386-11.549h-4.779l-1.328,2.721,4.248,1.46c.996-1.925,1.128-2.19,1.858-4.182Zm12.28,9.16c4.978-2.39,6.637-3.584,9.624-7.036-3.12-6.903-3.518-8.032-4.646-12.811l-3.385,3.584v-15.997c3.053-5.376,5.044-11.084,5.974-17.523h10.089c-.465,3.584-.996,5.576-2.39,9.558h14.735v9.492h-3.053c-1.328,10.155-2.456,14.536-5.708,22.302,2.854,3.518,4.513,4.779,8.761,6.837v12.213c-5.774-1.991-9.956-4.845-14.403-9.89-4.846,5.443-9.824,8.562-15.598,9.957v-10.687Zm16.926-30.732h-5.178c.93,5.111,1.394,7.168,2.921,12.279,1.46-5.642,1.792-7.566,2.257-12.279Z"/>
              </g>
            </g>
            <g>
              <path class="cls-4" d="M84.495,69.32h7.302v-27.479h11.018v27.479h7.368V31.884h-23.895v-10.222h57.216v10.222h-21.838v12.877h18.785v10.156h-18.785v14.403h23.166v10.222h-60.336v-10.222Z"/>
              <path class="cls-4" d="M149.944,70.315c2.39-1.659,2.921-2.987,3.053-7.633v-17.921l-2.588,1.991v-13.076c4.049-3.784,5.841-6.771,7.7-12.811h10.421l-.73,1.925h12.413v6.571l-2.921,4.712h3.917v36.905c0,8.23-1.792,9.823-10.819,9.89h-3.982v-9.691h6.106v-5.044h-10.886c.066,8.629-3.452,13.474-11.682,16.129v-11.948Zm14.138-24.227v-3.252h-2.456v3.252h2.456Zm0,11.616v-4.115h-2.456v4.115h2.456Zm3.252-23.63l1.858-2.655h-5.443l-1.659,2.655h5.244Zm5.177,12.014v-3.252h-2.39v3.252h2.39Zm0,11.616v-4.115h-2.39v4.115h2.39Zm19.913,14.536h-10.354v-8.894h10.354v-3.518h-10.687c1.128-4.58,1.726-7.102,2.655-12.479h6.836l-.863,4.115h2.058v-4.646h9.757v4.646h8.098v8.363h-8.098v3.518h9.425v8.894h-9.425v9.227h-9.757v-9.227Zm-9.359-34.582c2.987-.598,4.779-2.589,5.642-6.106h-5.642v-9.293h27.745c-.266,10.089-.597,15.466-1.195,17.324-.929,4.381-3.65,6.106-9.757,6.239h-3.85v-8.164h2.058c2.19-.066,2.456-.796,2.721-6.106h-2.721c-2.323,9.359-6.438,13.474-15.001,15.067v-8.961Z"/>
              <path class="cls-4" d="M217.185,72.838c5.045-.199,6.505-.398,10.023-1.527l-6.239-2.788c-1.195-.598-1.858-1.593-1.858-2.854,0-.598,.132-1.062,.664-2.456l.796-1.925h-3.385v-7.434h6.97c.796-1.66,.863-1.925,1.593-3.85h2.655v-4.381c-3.319,2.788-6.704,4.646-11.218,6.107v-9.425c3.784-1.261,5.509-1.992,8.297-3.917h-8.297v-8.496h2.722l-2.788-7.368h8.098l2.456,7.368h.73v-9.226h10.155v8.695l2.987-6.837h8.297l-3.452,7.368h1.726v8.496h-6.04c2.19,1.792,3.385,2.522,6.04,3.651v9.359c-3.252-1.261-6.173-3.186-9.558-6.239v4.912h-2.721l-1.726,3.784h14.005v7.434h-2.456c-1.328,3.65-1.527,4.182-3.054,7.766l3.983,1.394v10.089c-3.717-1.992-5.244-2.722-8.496-4.049-6.173,3.518-11.019,4.713-20.909,5.111v-8.762Zm18.386-11.549h-4.779l-1.328,2.721,4.248,1.46c.996-1.925,1.128-2.19,1.858-4.182Zm12.28,9.16c4.978-2.39,6.637-3.584,9.624-7.036-3.12-6.903-3.518-8.032-4.646-12.811l-3.385,3.584v-15.997c3.053-5.376,5.044-11.084,5.974-17.523h10.089c-.465,3.584-.996,5.576-2.39,9.558h14.735v9.492h-3.053c-1.328,10.155-2.456,14.536-5.708,22.302,2.854,3.518,4.513,4.779,8.761,6.837v12.213c-5.774-1.991-9.956-4.845-14.403-9.89-4.846,5.443-9.824,8.562-15.598,9.957v-10.687Zm16.926-30.732h-5.178c.93,5.111,1.394,7.168,2.921,12.279,1.46-5.642,1.792-7.566,2.257-12.279Z"/>
            </g>
          </g>
          <g>
            <path class="cls-1" d="M84.495,69.32h7.302v-27.479h11.018v27.479h7.368V31.884h-23.895v-10.222h57.216v10.222h-21.838v12.877h18.785v10.156h-18.785v14.403h23.166v10.222h-60.336v-10.222Z"/>
            <path class="cls-1" d="M149.944,70.315c2.39-1.659,2.921-2.987,3.053-7.633v-17.921l-2.588,1.991v-13.076c4.049-3.784,5.841-6.771,7.7-12.811h10.421l-.73,1.925h12.413v6.571l-2.921,4.712h3.917v36.905c0,8.23-1.792,9.823-10.819,9.89h-3.982v-9.691h6.106v-5.044h-10.886c.066,8.629-3.452,13.474-11.682,16.129v-11.948Zm14.138-24.227v-3.252h-2.456v3.252h2.456Zm0,11.616v-4.115h-2.456v4.115h2.456Zm3.252-23.63l1.858-2.655h-5.443l-1.659,2.655h5.244Zm5.177,12.014v-3.252h-2.39v3.252h2.39Zm0,11.616v-4.115h-2.39v4.115h2.39Zm19.913,14.536h-10.354v-8.894h10.354v-3.518h-10.687c1.128-4.58,1.726-7.102,2.655-12.479h6.836l-.863,4.115h2.058v-4.646h9.757v4.646h8.098v8.363h-8.098v3.518h9.425v8.894h-9.425v9.227h-9.757v-9.227Zm-9.359-34.582c2.987-.598,4.779-2.589,5.642-6.106h-5.642v-9.293h27.745c-.266,10.089-.597,15.466-1.195,17.324-.929,4.381-3.65,6.106-9.757,6.239h-3.85v-8.164h2.058c2.19-.066,2.456-.796,2.721-6.106h-2.721c-2.323,9.359-6.438,13.474-15.001,15.067v-8.961Z"/>
            <path class="cls-1" d="M217.185,72.838c5.045-.199,6.505-.398,10.023-1.527l-6.239-2.788c-1.195-.598-1.858-1.593-1.858-2.854,0-.598,.132-1.062,.664-2.456l.796-1.925h-3.385v-7.434h6.97c.796-1.66,.863-1.925,1.593-3.85h2.655v-4.381c-3.319,2.788-6.704,4.646-11.218,6.107v-9.425c3.784-1.261,5.509-1.992,8.297-3.917h-8.297v-8.496h2.722l-2.788-7.368h8.098l2.456,7.368h.73v-9.226h10.155v8.695l2.987-6.837h8.297l-3.452,7.368h1.726v8.496h-6.04c2.19,1.792,3.385,2.522,6.04,3.651v9.359c-3.252-1.261-6.173-3.186-9.558-6.239v4.912h-2.721l-1.726,3.784h14.005v7.434h-2.456c-1.328,3.65-1.527,4.182-3.054,7.766l3.983,1.394v10.089c-3.717-1.992-5.244-2.722-8.496-4.049-6.173,3.518-11.019,4.713-20.909,5.111v-8.762Zm18.386-11.549h-4.779l-1.328,2.721,4.248,1.46c.996-1.925,1.128-2.19,1.858-4.182Zm12.28,9.16c4.978-2.39,6.637-3.584,9.624-7.036-3.12-6.903-3.518-8.032-4.646-12.811l-3.385,3.584v-15.997c3.053-5.376,5.044-11.084,5.974-17.523h10.089c-.465,3.584-.996,5.576-2.39,9.558h14.735v9.492h-3.053c-1.328,10.155-2.456,14.536-5.708,22.302,2.854,3.518,4.513,4.779,8.761,6.837v12.213c-5.774-1.991-9.956-4.845-14.403-9.89-4.846,5.443-9.824,8.562-15.598,9.957v-10.687Zm16.926-30.732h-5.178c.93,5.111,1.394,7.168,2.921,12.279,1.46-5.642,1.792-7.566,2.257-12.279Z"/>
          </g>
        </g>
        <g>
          <g>
            <g class="cls-5">
              <path class="cls-3" d="M11.227,64.032v-5.613h22.453v5.613H11.227Zm0-11.227v-5.613H44.907v5.613H11.227Zm0-11.227v-5.613H44.907v5.613H11.227Zm37.469,30.873l-9.964-9.964,3.929-3.929,6.034,5.894,11.928-11.928,3.929,4.07-15.858,15.858Z"/>
            </g>
            <path class="cls-3" d="M11.227,61.032v-5.613h22.453v5.613H11.227Zm0-11.227v-5.613H44.907v5.613H11.227Zm0-11.227v-5.613H44.907v5.613H11.227Zm37.469,30.873l-9.964-9.964,3.929-3.929,6.034,5.894,11.928-11.928,3.929,4.07-15.858,15.858Z"/>
          </g>
          <path class="cls-1" d="M11.227,61.032v-5.613h22.453v5.613H11.227Zm0-11.227v-5.613H44.907v5.613H11.227Zm0-11.227v-5.613H44.907v5.613H11.227Zm37.469,30.873l-9.964-9.964,3.929-3.929,6.034,5.894,11.928-11.928,3.929,4.07-15.858,15.858Z"/>
        </g>
      </g>
    </g>
  </g>
</svg>